<svg width="91" height="32" viewBox="0 0 91 32" fill="none" xmlns="http://www.w3.org/2000/svg">
<g clip-path="url(#clip0_718_19502)">
<path d="M0 0H14.4872C17.9731 0 20.6443 0.8338 22.3191 2.28282C24.0846 3.81927 24.8995 5.70652 24.8995 8.16473C24.8995 11.3693 22.8623 13.4325 19.8288 14.4417V14.5734C23.4055 15.5831 25.8501 18.4801 25.8501 22.3431C25.8501 25.2843 24.8995 27.3032 22.9981 28.8834C21.1419 30.4636 18.2898 31.3853 14.849 31.3853H0V0ZM13.6723 12.6419C16.5243 12.6419 18.4713 11.3251 18.4713 8.86685C18.4713 6.54032 16.7058 5.1798 13.8081 5.1798H6.56453V12.6419H13.6723ZM6.56453 26.1181H14.1248C17.2941 26.1181 19.1954 24.4062 19.1954 21.8601C19.1954 18.8751 16.9317 17.3387 13.9439 17.3387H6.56453V26.1181Z" fill="white"/>
<path d="M34.9071 12.4646H35.0429C36.4467 9.91837 38.0308 8.60156 40.7475 8.60156C41.4266 8.60156 41.834 8.64528 42.1963 8.77696V14.0005H42.0605C38.0313 13.6054 35.1337 15.6686 35.1337 20.4096V31.3834H28.9766V8.86492H34.9071V12.4646Z" fill="white"/>
<path d="M59.537 31.3862V28.7526H59.4012C57.8166 30.8157 56.0059 32.0009 52.7459 32.0009C47.5852 32.0009 44.6875 28.7963 44.6875 23.8799V8.86719H50.7995V22.8701C50.7995 25.5037 52.0218 26.9522 54.6478 26.9522C57.5455 26.9522 59.311 24.8453 59.311 21.8604V8.86719H65.4681V31.3857H59.5376L59.537 31.3862Z" fill="white"/>
<path d="M67.9102 8.86707H71.1245V1.84375H77.1458V8.86707H81.1299V12.818H77.1458V24.7578C77.1458 26.4259 78.0965 26.9964 79.4546 26.9964C80.2243 26.9964 81.2657 26.9526 81.2657 26.9526V31.3423C81.2657 31.3423 79.8626 31.4303 77.4174 31.4303C74.4296 31.4303 71.1245 30.2889 71.1245 26.0309V12.818H67.9102V8.86707Z" fill="white"/>
<path d="M84.3906 25.0195H91.0008V31.3845H84.3906V25.0195Z" fill="white"/>
</g>
<defs>
<clipPath id="clip0_718_19502">
<rect width="91" height="32" fill="white"/>
</clipPath>
</defs>
</svg>
